<svg width="42" height="73" viewBox="0 0 42 73" fill="none" xmlns="http://www.w3.org/2000/svg">
<path d="M28.7313 46.4039L28.3178 45.7781L28.3178 45.7781L28.7313 46.4039ZM39.9223 53.5076L39.2752 53.1283L39.2752 53.1283L39.9223 53.5076ZM3.7844 40.6047L4.42243 40.2105L3.7844 40.6047ZM23.4428 0.229921L19.6529 8.01687L14.8041 0.841243L23.4428 0.229921ZM21.3063 2.61635C20.7388 3.02136 20.1843 3.42627 19.6429 3.83099L18.7448 2.62957C19.2953 2.21807 19.8587 1.80664 20.4351 1.39534L21.3063 2.61635ZM18.0089 5.08286C17.4603 5.51376 16.9264 5.94434 16.4071 6.37449L15.4503 5.2193C15.9798 4.78068 16.5238 4.34197 17.0823 3.90326L18.0089 5.08286ZM14.8415 7.70844C14.3166 8.16874 13.8084 8.6284 13.3166 9.0873L12.2932 7.9906C12.7966 7.52089 13.3163 7.05089 13.8524 6.58071L14.8415 7.70844ZM11.8382 10.5136C11.3443 11.0068 10.8693 11.4988 10.4131 11.9897L9.31437 10.9685C9.78368 10.4636 10.2716 9.95808 10.7783 9.45214L11.8382 10.5136ZM9.04946 13.5177C8.59701 14.0466 8.1663 14.5739 7.75702 15.0993L6.57371 14.1774C6.99752 13.6334 7.44275 13.0884 7.9096 12.5427L9.04946 13.5177ZM6.54693 16.7354C6.14781 17.3055 5.77401 17.8729 5.42509 18.4375L4.14907 17.649C4.51357 17.0592 4.90319 16.4678 5.31817 15.8751L6.54693 16.7354ZM4.41259 20.1975C4.08829 20.8065 3.79309 21.4118 3.52643 22.013L2.15526 21.4048C2.43698 20.7696 2.74801 20.1321 3.08861 19.4925L4.41259 20.1975ZM2.78092 23.8908C2.55462 24.537 2.36154 25.1781 2.20096 25.8136L0.746668 25.4461C0.918524 24.766 1.12459 24.0822 1.36522 23.395L2.78092 23.8908ZM1.80449 27.7781C1.70374 28.4477 1.63951 29.1108 1.61095 29.767L0.11237 29.7018C0.143271 28.9918 0.212704 28.2759 0.321181 27.5549L1.80449 27.7781ZM1.63446 31.7595C1.6797 32.4256 1.76249 33.0844 1.8821 33.7356L0.406792 34.0066C0.276891 33.2995 0.187004 32.5841 0.137906 31.8612L1.63446 31.7595ZM2.35252 35.6715C2.54443 36.304 2.77228 36.929 3.03555 37.546L1.65589 38.1347C1.37171 37.4686 1.12514 36.7925 0.917138 36.107L2.35252 35.6715ZM3.91506 39.3437C4.076 39.6346 4.24514 39.9235 4.42243 40.2105L3.14637 40.9989C2.95663 40.6919 2.77532 40.3822 2.60257 40.0699L3.91506 39.3437ZM4.42243 40.2105C4.59935 40.4968 4.7773 40.7788 4.95625 41.0565L3.69532 41.869C3.51122 41.5833 3.32822 41.2933 3.14637 40.9989L4.42243 40.2105ZM6.05745 42.6949C6.44217 43.2435 6.83078 43.7736 7.22277 44.2857L6.03171 45.1975C5.62685 44.6686 5.22589 44.1217 4.82934 43.5562L6.05745 42.6949ZM8.4547 45.8235C8.88508 46.3366 9.31881 46.8292 9.75525 47.302L8.6531 48.3195C8.20034 47.829 7.75091 47.3185 7.30545 46.7874L8.4547 45.8235ZM11.1258 48.7139C11.604 49.1819 12.0847 49.6274 12.5669 50.051L11.577 51.178C11.0743 50.7364 10.5739 50.2726 10.0766 49.7859L11.1258 48.7139ZM14.0781 51.3042C14.6041 51.7152 15.1309 52.1014 15.6578 52.4638L14.8077 53.6996C14.2556 53.3199 13.7042 52.9156 13.1545 52.486L14.0781 51.3042ZM17.3029 53.5196C17.8734 53.8602 18.4427 54.1738 19.0095 54.4617L18.3301 55.7991C17.7328 55.4956 17.1337 55.1655 16.5341 54.8077L17.3029 53.5196ZM20.784 55.2847C21.3967 55.5421 22.0048 55.7703 22.6065 55.9709L22.1324 57.3939C21.4943 57.1813 20.8506 56.9397 20.203 56.6676L20.784 55.2847ZM24.4729 56.5112C25.1181 56.6699 25.7536 56.7971 26.3773 56.895L26.1448 58.3768C25.4786 58.2723 24.8011 58.1366 24.1146 57.9678L24.4729 56.5112ZM28.3013 57.1085C28.9625 57.151 29.606 57.1601 30.2289 57.1385L30.2807 58.6376C29.6077 58.6609 28.9147 58.651 28.205 58.6054L28.3013 57.1085ZM32.1469 56.9688C32.8039 56.8734 33.4291 56.7423 34.0184 56.5798L34.4171 58.0259C33.7653 58.2056 33.0787 58.3493 32.3623 58.4532L32.1469 56.9688ZM35.8012 55.9476C36.404 55.6798 36.9468 55.3756 37.424 55.0437L38.2807 56.2749C37.7189 56.6658 37.0921 57.0155 36.4102 57.3184L35.8012 55.9476ZM38.7705 53.8376C38.9657 53.6063 39.134 53.3692 39.2752 53.1283L40.5693 53.8868C40.3822 54.206 40.1637 54.5124 39.9171 54.8048L38.7705 53.8376ZM39.2752 53.1283C39.4165 52.8872 39.5406 52.6234 39.6456 52.3412L41.0514 52.8644C40.9185 53.2216 40.758 53.5649 40.5693 53.8868L39.2752 53.1283ZM40.0222 50.5917C40.0697 49.9934 40.0429 49.3794 39.9391 48.7838L41.4169 48.5264C41.5427 49.2487 41.5747 49.9891 41.5175 50.7104L40.0222 50.5917ZM39.3951 47.0873C39.1319 46.5561 38.7916 46.0875 38.3762 45.7076L39.3884 44.6006C39.9568 45.1204 40.4038 45.7445 40.7392 46.4213L39.3951 47.0873ZM36.9313 44.8644C36.4389 44.7031 35.8714 44.6191 35.2205 44.643L35.1655 43.144C35.9794 43.1141 36.7248 43.2183 37.3984 43.439L36.9313 44.8644ZM33.4215 44.9439C32.8774 45.098 32.2922 45.315 31.6648 45.6046L31.0361 44.2427C31.7265 43.924 32.3852 43.6784 33.0128 43.5007L33.4215 44.9439ZM29.969 46.5093C29.7003 46.6708 29.4256 46.8441 29.1447 47.0296L28.3178 45.7781C28.6157 45.5813 28.9085 45.3966 29.1962 45.2237L29.969 46.5093ZM29.1447 47.0296C28.8667 47.2133 28.5991 47.4029 28.3416 47.598L27.4357 46.4024C27.7192 46.1876 28.0132 45.9794 28.3178 45.7781L29.1447 47.0296ZM26.8641 48.8846C26.3954 49.354 25.9705 49.8473 25.587 50.3618L24.3843 49.4654C24.8107 48.8934 25.2827 48.3454 25.8026 47.8247L26.8641 48.8846ZM24.5353 52.0078C24.2235 52.582 23.9526 53.177 23.7203 53.7902L22.3176 53.2587C22.5729 52.5848 22.8717 51.928 23.2171 51.292L24.5353 52.0078ZM23.1391 55.6722C22.9842 56.3071 22.8644 56.957 22.7776 57.619L21.2903 57.424C21.3838 56.7111 21.5133 56.0075 21.6818 55.3167L23.1391 55.6722ZM22.6155 59.6028C22.5925 60.262 22.5985 60.9296 22.6314 61.6028L21.1332 61.6761C21.0983 60.9634 21.0919 60.2539 21.1164 59.5505L22.6155 59.6028ZM22.8048 63.6026C22.8864 64.2638 22.9914 64.9274 23.1181 65.591L21.6447 65.8724C21.5121 65.1779 21.4019 64.4816 21.3161 63.7862L22.8048 63.6026ZM23.5566 67.5608C23.722 68.2126 23.9065 68.8617 24.1083 69.5056L22.677 69.9542C22.4672 69.2849 22.2751 68.6092 22.1027 67.9297L23.5566 67.5608ZM24.764 71.4202C24.8818 71.7371 25.0034 72.052 25.1286 72.3647L23.7362 72.9224C23.6063 72.5982 23.4801 72.2715 23.358 71.9427L24.764 71.4202Z" fill="#8A8A8A"/>
</svg>
