<svg width="16" height="16" viewBox="0 0 16 16" fill="none" xmlns="http://www.w3.org/2000/svg">
<rect width="16" height="16" rx="4" fill="#F5F6F7"/>
<path d="M5.49787 10.6288C4.9764 10.6288 4.52786 10.5183 4.15223 10.2974C3.7788 10.0742 3.49156 9.76487 3.29048 9.36935C3.09162 8.97383 2.99219 8.51865 2.99219 8.00382C2.99219 7.48235 3.09272 7.02497 3.2938 6.63166C3.49708 6.23614 3.78543 5.9279 4.15885 5.70694C4.53228 5.48377 4.9764 5.37219 5.49124 5.37219C5.93537 5.37219 6.32426 5.45284 6.65791 5.61414C6.99156 5.77544 7.2556 6.00192 7.45005 6.29359C7.64449 6.58526 7.75166 6.92774 7.77154 7.32105H6.43916C6.40159 7.06695 6.30216 6.86256 6.14086 6.70789C5.98177 6.55101 5.77296 6.47257 5.51444 6.47257C5.29569 6.47257 5.10456 6.53223 4.94105 6.65154C4.77975 6.76865 4.6538 6.9399 4.56321 7.16528C4.47262 7.39065 4.42732 7.66354 4.42732 7.98393C4.42732 8.30874 4.47151 8.58494 4.5599 8.81253C4.65049 9.04012 4.77754 9.21357 4.94105 9.33289C5.10456 9.45221 5.29569 9.51187 5.51444 9.51187C5.67574 9.51187 5.82047 9.47872 5.94863 9.41243C6.07899 9.34615 6.18616 9.25003 6.27012 9.12408C6.3563 8.99593 6.41264 8.84236 6.43916 8.66338H7.77154C7.74945 9.05227 7.64339 9.39476 7.45336 9.69084C7.26555 9.98472 7.00592 10.2145 6.67448 10.3802C6.34304 10.546 5.95084 10.6288 5.49787 10.6288Z" fill="#098DC8"/>
<path d="M12.8957 6.88957L11.6031 6.96912C11.581 6.85864 11.5335 6.75921 11.4606 6.67082C11.3877 6.58023 11.2915 6.50842 11.1722 6.45539C11.0551 6.40015 10.9148 6.37253 10.7513 6.37253C10.5326 6.37253 10.348 6.41893 10.1978 6.51173C10.0475 6.60233 9.97242 6.72385 9.97242 6.87632C9.97242 6.99784 10.021 7.10059 10.1183 7.18456C10.2155 7.26852 10.3823 7.33591 10.6187 7.38673L11.5401 7.57234C12.0351 7.67398 12.4041 7.83749 12.6471 8.06287C12.8902 8.28825 13.0117 8.58433 13.0117 8.95113C13.0117 9.28478 12.9134 9.57755 12.7167 9.82944C12.5223 10.0813 12.2549 10.278 11.9147 10.4194C11.5766 10.5586 11.1866 10.6282 10.7447 10.6282C10.0707 10.6282 9.53382 10.4879 9.13388 10.2073C8.73615 9.92445 8.50304 9.53998 8.43454 9.05387L9.82327 8.98096C9.86526 9.18645 9.9669 9.34333 10.1282 9.4516C10.2895 9.55766 10.4961 9.61069 10.748 9.61069C10.9955 9.61069 11.1943 9.56319 11.3446 9.46817C11.497 9.37095 11.5744 9.24611 11.5766 9.09365C11.5744 8.96549 11.5202 8.86053 11.4142 8.77878C11.3081 8.69481 11.1446 8.63074 10.9237 8.58654L10.042 8.41088C9.54486 8.31145 9.17476 8.1391 8.9317 7.89384C8.69085 7.64857 8.57043 7.33591 8.57043 6.95586C8.57043 6.62884 8.65882 6.34712 8.83558 6.11069C9.01456 5.87427 9.26535 5.69197 9.58795 5.56382C9.91276 5.43566 10.2928 5.37158 10.7281 5.37158C11.3711 5.37158 11.8771 5.50747 12.2461 5.77925C12.6173 6.05103 12.8338 6.42114 12.8957 6.88957Z" fill="#EE3F58"/>
</svg>
