<svg width="20" height="21" viewBox="0 0 20 21" fill="none" xmlns="http://www.w3.org/2000/svg">
<path d="M5.44318 8C6.01136 8 6.52983 8.08286 6.99858 8.24858C7.46733 8.40956 7.88873 8.6179 8.26278 8.87358C8.64157 9.12926 8.97301 9.39441 9.2571 9.66903C9.38968 9.79214 9.50568 9.91051 9.60511 10.0241C9.70928 10.133 9.81108 10.2443 9.91051 10.358C10.0005 10.2443 10.0952 10.133 10.1946 10.0241C10.294 9.91525 10.4124 9.79688 10.5497 9.66903C10.9806 9.25237 11.5156 8.87121 12.1548 8.52557C12.7988 8.17519 13.5398 8 14.3778 8C15.1733 8 15.8977 8.19176 16.5511 8.57528C17.2045 8.95881 17.723 9.47254 18.1065 10.1165C18.4948 10.7604 18.6889 11.4706 18.6889 12.2472C18.6889 12.8343 18.5777 13.3859 18.3551 13.902C18.1326 14.4181 17.8224 14.8703 17.4247 15.2585C17.0317 15.6468 16.5748 15.9498 16.054 16.1676C15.5331 16.3854 14.9744 16.4943 14.3778 16.4943C13.8097 16.4943 13.2912 16.4162 12.8224 16.2599C12.3537 16.099 11.9323 15.8954 11.5582 15.6491C11.1842 15.4029 10.8551 15.1473 10.571 14.8821C10.429 14.7448 10.3059 14.6193 10.2017 14.5057C10.0975 14.392 10.0005 14.2784 9.91051 14.1648C9.80635 14.2831 9.70218 14.4015 9.59801 14.5199C9.49385 14.6335 9.37547 14.7543 9.2429 14.8821C8.96828 15.1378 8.64394 15.3911 8.26989 15.642C7.89583 15.8883 7.47206 16.0919 6.99858 16.2528C6.52983 16.4138 6.01136 16.4943 5.44318 16.4943C4.64773 16.4943 3.9233 16.3049 3.26989 15.9261C2.61648 15.5426 2.09564 15.0313 1.70739 14.392C1.31913 13.7481 1.125 13.0331 1.125 12.2472C1.125 11.6648 1.23627 11.1179 1.45881 10.6065C1.68134 10.0952 1.98911 9.64536 2.3821 9.2571C2.77983 8.86411 3.23911 8.55634 3.75994 8.33381C4.28551 8.11127 4.84659 8 5.44318 8ZM3.44034 12.2472C3.44034 12.607 3.5303 12.9361 3.71023 13.2344C3.89015 13.5279 4.13163 13.7623 4.43466 13.9375C4.73769 14.108 5.07386 14.1932 5.44318 14.1932C5.87405 14.1932 6.26705 14.1032 6.62216 13.9233C6.98201 13.7386 7.32292 13.4972 7.64489 13.1989C7.83428 13.0237 7.99527 12.8556 8.12784 12.6946C8.26042 12.5289 8.37405 12.3797 8.46875 12.2472C8.36932 12.1146 8.24148 11.9607 8.08523 11.7855C7.93371 11.6103 7.78693 11.4564 7.64489 11.3239C7.34659 11.0398 7.01278 10.7983 6.64347 10.5994C6.27415 10.4006 5.87405 10.3011 5.44318 10.3011C5.07386 10.3011 4.73769 10.3911 4.43466 10.571C4.13163 10.7462 3.89015 10.983 3.71023 11.2812C3.5303 11.5748 3.44034 11.8968 3.44034 12.2472ZM16.3665 12.2472C16.3665 11.8968 16.2765 11.5748 16.0966 11.2812C15.9167 10.983 15.6752 10.7462 15.3722 10.571C15.0739 10.3911 14.7424 10.3011 14.3778 10.3011C14.0843 10.3011 13.8049 10.3485 13.5398 10.4432C13.2794 10.5331 13.0331 10.6562 12.8011 10.8125C12.5691 10.964 12.3584 11.1345 12.169 11.3239C11.9986 11.4848 11.8352 11.6577 11.679 11.8423C11.5275 12.027 11.4162 12.1619 11.3452 12.2472C11.4541 12.3987 11.5748 12.5526 11.7074 12.7088C11.84 12.8651 11.9938 13.0284 12.169 13.1989C12.4815 13.4924 12.8177 13.7315 13.1776 13.9162C13.5374 14.1009 13.9375 14.1932 14.3778 14.1932C14.7424 14.1932 15.0739 14.108 15.3722 13.9375C15.6752 13.7623 15.9167 13.5279 16.0966 13.2344C16.2765 12.9361 16.3665 12.607 16.3665 12.2472Z" fill="#26B0ED"/>
</svg>
